<?xml version="1.0" encoding="UTF-8"?>
<svg version="1.1" xmlns="http://www.w3.org/2000/svg" width="1000" height="1000">
<path d="M0 0 C0.90996534 -0.00382555 1.81993068 -0.00765109 2.75747073 -0.01159257 C5.80741754 -0.02191348 8.85717578 -0.01793211 11.90713501 -0.01396179 C14.09353306 -0.01830878 16.27992959 -0.02349188 18.46632385 -0.02944946 C24.40640812 -0.0428525 30.34642881 -0.04341664 36.28652525 -0.04088616 C41.2443514 -0.03981728 46.20216465 -0.04469774 51.15998805 -0.04949158 C63.52508247 -0.06122624 75.89014551 -0.06035912 88.25524183 -0.05393478 C98.98789842 -0.04876667 109.72046423 -0.06001842 120.45310287 -0.07903299 C131.47883534 -0.09841674 142.50452276 -0.10637506 153.53027213 -0.10290974 C159.71818499 -0.10109584 165.90601471 -0.10374379 172.09391403 -0.11762428 C177.91336428 -0.13018949 183.73263273 -0.12827076 189.55208015 -0.11521339 C191.68739572 -0.11284518 193.82272402 -0.11559103 195.95802498 -0.12383652 C198.8741649 -0.13428481 201.78969264 -0.12621844 204.70581055 -0.11352539 C205.54969153 -0.12089968 206.39357251 -0.12827396 207.26302564 -0.13587171 C212.56838805 -0.08733077 216.23551975 0.86182637 220.97988892 3.26069641 C220.97988892 3.92069641 220.97988892 4.58069641 220.97988892 5.26069641 C221.63988892 5.26069641 222.29988892 5.26069641 222.97988892 5.26069641 C226.79660377 10.46530757 228.1049893 13.92449598 228.10408741 20.31434983 C228.10633471 21.59109935 228.108582 22.86784887 228.11089739 24.18328777 C228.10833139 25.61113542 228.10567446 27.03898292 228.10293674 28.46683025 C228.10367589 29.9813362 228.10485395 31.49584198 228.10643324 33.01034728 C228.10951637 37.20145097 228.10631549 41.3925306 228.10215511 45.58363251 C228.09873304 50.13206675 228.10108938 54.68049844 228.1027326 59.22893316 C228.10481079 67.21026749 228.10315499 75.19159438 228.09909439 83.17292786 C228.0930731 95.04098294 228.09275731 106.90903331 228.09363638 118.77708964 C228.09495205 138.73855259 228.09160215 158.70001224 228.08561897 178.66147423 C228.07970763 198.43384505 228.07585418 218.2062145 228.07476616 237.9785862 C228.07469742 239.20668322 228.07462868 240.43478025 228.07455786 241.70009234 C228.07421954 247.93664526 228.07391815 254.17319818 228.07363098 260.40975109 C228.071529 304.6155196 228.06478805 348.82128635 228.05532837 393.02705383 C228.05303674 403.74558003 228.05076139 414.46410623 228.04855347 425.18263245 C228.04841652 425.84738334 228.04827957 426.51213422 228.04813847 427.19702908 C228.04179609 458.09122635 228.03806935 488.98542377 228.03501867 519.87962152 C228.03482061 521.88493779 228.03462141 523.89025406 228.03442199 525.89557033 C228.03310223 539.1847438 228.03182769 552.47391727 228.03058313 565.76309075 C228.02804673 592.83612994 228.02522548 619.9091691 228.02223206 646.98220825 C228.02202612 648.84948523 228.02202612 648.84948523 228.02181603 650.75448497 C228.01759184 688.92063342 228.01215999 727.08678157 228.00553894 765.25292969 C228.00535138 766.3367858 228.00516382 767.42064192 228.00497058 768.53734215 C227.99735419 812.44512705 227.98846102 856.3529117 227.97988892 900.26069641 C145.14988892 900.26069641 62.31988892 900.26069641 -23.02011108 900.26069641 C-23.10063421 797.22794888 -23.10063421 797.22794888 -23.12271118 765.35552979 C-23.12350052 764.21881654 -23.12428985 763.08210329 -23.1251031 761.91094419 C-23.15159456 723.65782518 -23.17260102 685.40470522 -23.18948364 647.15158081 C-23.19003587 645.90351975 -23.1905881 644.65545868 -23.19115706 643.36957759 C-23.2031278 616.24793948 -23.21420865 589.12630108 -23.2243724 562.00466224 C-23.22911121 549.37302832 -23.23401414 536.74139446 -23.23904085 524.10976065 C-23.23983784 522.10468256 -23.24063032 520.09960446 -23.2414226 518.09452637 C-23.253664 487.21544309 -23.26930199 456.33636612 -23.29476929 425.45729065 C-23.29559068 424.46123382 -23.29559068 424.46123382 -23.29642867 423.44505463 C-23.30527826 412.73864903 -23.31441266 402.03224367 -23.32358485 391.32583835 C-23.36192902 346.56053226 -23.3875245 301.79523873 -23.39577104 257.0299164 C-23.39692372 250.80597596 -23.39822627 244.58203556 -23.39962006 238.35809517 C-23.39988975 237.1330958 -23.40015944 235.90809644 -23.4004373 234.64597588 C-23.40517007 214.90140511 -23.42373816 195.15687024 -23.44743922 175.41231413 C-23.4709545 155.57779235 -23.47999147 135.74330628 -23.47411659 115.90877103 C-23.47106689 104.11473523 -23.47925095 92.32082984 -23.50330126 80.52681752 C-23.51825881 72.65631751 -23.51879545 64.78590328 -23.50743834 56.91539744 C-23.50137767 52.42579168 -23.50174605 47.9364332 -23.51964381 43.44685357 C-23.53579383 39.36481448 -23.53362683 35.28321635 -23.51667099 31.20118428 C-23.51380729 29.73139945 -23.51769275 28.26158252 -23.52905206 26.7918388 C-23.59941439 17.07394202 -23.00602436 11.85982711 -16.58261108 4.44819641 C-11.3627982 -0.00774141 -6.56699773 -0.02925565 0 0 Z " fill="#40B8D4" transform="translate(772.0201110839844,99.73930358886719)"/>
<path d="M0 0 C0.90688507 -0.00538554 1.81377014 -0.01077108 2.74813658 -0.01631981 C5.77579848 -0.0305853 8.8030223 -0.02349908 11.83070374 -0.01637268 C14.00592398 -0.02207696 16.18114123 -0.02904145 18.35635376 -0.03717041 C24.25715784 -0.0551101 30.15781327 -0.0539319 36.05863643 -0.04822803 C40.98665041 -0.04513746 45.91463579 -0.05122714 50.8426457 -0.05726677 C62.46889759 -0.07131297 74.09507599 -0.0697498 85.72132874 -0.05836487 C97.71212612 -0.04688238 109.70260839 -0.06096134 121.69338316 -0.08776134 C131.99251853 -0.10991786 142.2915837 -0.11655584 152.59074122 -0.11068493 C158.74011341 -0.1073142 164.88934224 -0.10973837 171.03869438 -0.12693596 C176.82129262 -0.14240216 182.60355951 -0.13845281 188.38614464 -0.11963081 C190.50652757 -0.11594413 192.62693504 -0.11905567 194.74729538 -0.1295166 C197.64563245 -0.14272242 200.54287193 -0.13118225 203.44116211 -0.11352539 C204.27687506 -0.1231304 205.11258801 -0.1327354 205.9736256 -0.14263147 C212.59677052 -0.05981917 218.02470715 1.70685415 222.84266663 6.38768005 C223.29770569 7.04768005 223.75274475 7.70768005 224.22157288 8.38768005 C224.69465881 9.04768005 225.16774475 9.70768005 225.65516663 10.38768005 C227.72057857 14.04681816 227.90897881 17.43965324 227.90827137 21.59090352 C227.91051867 22.65202092 227.91276596 23.71313832 227.91508135 24.80641079 C227.91245434 25.97349229 227.90982732 27.14057379 227.9071207 28.34302139 C227.90827455 29.58690305 227.90942839 30.83078472 227.9106172 32.11235976 C227.91369428 35.58229124 227.91050443 39.05219355 227.90633907 42.52212286 C227.90291202 46.29053063 227.9052743 50.05893536 227.90691656 53.8273437 C227.90899319 60.43758393 227.9073416 67.04781517 227.90327835 73.65805435 C227.89725316 83.48729957 227.89694163 93.31653911 227.89782034 103.14578584 C227.89913553 119.6786615 227.89578792 136.21153316 227.88980293 152.74440765 C227.88389033 169.11919932 227.88003788 185.49398932 227.87895012 201.86878204 C227.87888138 202.88608562 227.87881264 203.9033892 227.87874182 204.95152016 C227.87840349 210.11767729 227.87810211 215.28383442 227.87781494 220.44999155 C227.87571331 257.06268573 227.86897254 293.67537773 227.85951233 330.28807068 C227.8503312 365.86163827 227.84324597 401.43520527 227.83900452 437.0087738 C227.83887299 438.10488474 227.83874146 439.20099567 227.83860595 440.33032209 C227.83728746 451.33769915 227.83601164 462.34507622 227.83476709 473.35245328 C227.83223073 495.7766915 227.82940948 518.20092968 227.82641602 540.62516785 C227.82621008 542.17178741 227.82621008 542.17178741 227.82599999 543.74965182 C227.82177604 575.35989082 227.81634433 606.97012945 227.8097229 638.58036804 C227.80953534 639.47799635 227.80934778 640.37562467 227.80915454 641.30045384 C227.80153839 677.66286274 227.79264506 714.02527136 227.78407288 750.38768005 C144.62407288 750.38768005 61.46407288 750.38768005 -24.21592712 750.38768005 C-24.27631947 665.05515462 -24.27631947 665.05515462 -24.2928772 638.65731812 C-24.2934692 637.7158536 -24.2940612 636.77438909 -24.29467114 635.80439534 C-24.31454068 604.12033076 -24.33029513 572.43626552 -24.34295654 540.75219727 C-24.34337071 539.71841631 -24.34378489 538.68463535 -24.34421161 537.6195277 C-24.35318977 515.15413569 -24.36150039 492.68874348 -24.36912311 470.22335097 C-24.37286521 459.20675684 -24.37675486 448.19016277 -24.38072205 437.17356873 C-24.38111432 436.0772695 -24.3815066 434.98097028 -24.38191076 433.85144987 C-24.39470094 398.30004256 -24.41723944 362.74864952 -24.44481879 327.19725087 C-24.47310241 290.67176396 -24.49158017 254.14628497 -24.49767209 217.6207873 C-24.49853659 212.4649961 -24.4995135 207.30920493 -24.50055885 202.15341377 C-24.50076112 201.13865328 -24.50096339 200.12389279 -24.50117179 199.07838198 C-24.50472065 182.72584787 -24.51864481 166.37333816 -24.53642323 150.02081402 C-24.5540644 133.59172529 -24.56083622 117.16266081 -24.55643126 100.73356294 C-24.55414488 90.96581147 -24.56027408 81.19814861 -24.57831975 71.4304131 C-24.58954493 64.9105749 -24.5899354 58.39079492 -24.58142256 51.87095275 C-24.57688079 48.15280787 -24.57713838 44.4348309 -24.59057667 40.71670382 C-24.6049301 36.71506541 -24.59617568 32.71381344 -24.58507061 28.71216488 C-24.59295165 27.55296442 -24.60083269 26.39376396 -24.60895255 25.19943622 C-24.55118726 16.04988101 -22.90553 10.07728293 -16.21592712 3.38768005 C-10.67746735 0.44007974 -6.2091556 -0.04453439 0 0 Z " fill="#40B7D5" transform="translate(398.21592712402344,249.61231994628906)"/>
<path d="M0 0 C0.91167419 -0.00467997 1.82334838 -0.00935994 2.76264906 -0.01418173 C5.80647453 -0.02611315 8.84984823 -0.01668164 11.89367676 -0.00723267 C14.08037071 -0.01129918 16.2670626 -0.01664151 18.45375061 -0.02316284 C24.38548641 -0.03683263 30.31706557 -0.03153909 36.24880409 -0.02202559 C42.45819138 -0.01442731 48.66756531 -0.02147507 54.87695312 -0.02618408 C65.97205701 -0.03199061 77.06709162 -0.02267095 88.16218442 -0.00740607 C98.21480698 0.00599654 108.2673256 0.00366827 118.31994629 -0.01016235 C130.00368401 -0.02617306 141.68735671 -0.03218616 153.37110376 -0.02332556 C159.55227307 -0.01864985 165.73337082 -0.01802149 171.91453552 -0.02793503 C177.72581543 -0.03660439 183.53689915 -0.0305831 189.34815788 -0.01325226 C191.48024609 -0.00928729 193.61235083 -0.01042162 195.74443245 -0.01704025 C198.65609739 -0.02524524 201.56713474 -0.01494648 204.47875977 0 C205.74253488 -0.01003825 205.74253488 -0.01003825 207.0318408 -0.02027929 C213.07010525 0.03978905 218.22419712 0.89583011 222.70031738 5.31845093 C223.40027832 6.33938843 223.40027832 6.33938843 224.11437988 7.38095093 C224.83754395 8.40188843 224.83754395 8.40188843 225.57531738 9.44345093 C228.08710924 13.62415147 227.87846459 17.62841396 227.86242771 22.34013653 C227.86358156 23.16414767 227.8647354 23.98815882 227.86592421 24.83713999 C227.86858926 27.62216454 227.8640696 30.40713228 227.8596344 33.19215393 C227.86007012 35.19939621 227.86094505 37.20663844 227.86222357 39.21388036 C227.86446829 44.74827439 227.86044754 50.28264922 227.8554455 55.8170408 C227.85114087 61.77818895 227.85258744 67.73933596 227.85334778 73.70048523 C227.85387301 84.03477918 227.85076112 94.36906729 227.84510994 104.7033596 C227.8391969 115.5442527 227.8353448 126.38514328 227.83425713 137.22603798 C227.83418839 137.8995963 227.83411965 138.57315461 227.83404882 139.26712379 C227.8337105 142.68765874 227.83340911 146.10819369 227.83312195 149.52872864 C227.83102044 173.76877775 227.82428001 198.00882359 227.81481934 222.24887085 C227.80563789 245.80062849 227.79856972 269.35238522 227.79431152 292.90414429 C227.79404088 294.38465184 227.79377018 295.86515939 227.79349941 297.34566694 C227.7914139 308.80783604 227.78946312 320.27000515 227.78754485 331.73217428 C227.77810529 387.94843624 227.75798838 444.16468981 227.73937988 500.38095093 C144.90937988 500.38095093 62.07937988 500.38095093 -23.26062012 500.38095093 C-23.38161416 378.66093945 -23.38161416 378.66093945 -23.40710449 327.91610718 C-23.41259598 317.03965601 -23.41822731 306.16320492 -23.4241981 295.286754 C-23.42500762 293.81144281 -23.42581273 292.33613162 -23.42661338 290.86082043 C-23.43941802 267.33386837 -23.46193242 243.80693792 -23.48951178 220.27999893 C-23.51780109 196.10356608 -23.53627448 171.92714519 -23.54236509 147.75069608 C-23.54322957 144.33735392 -23.54420649 140.92401181 -23.54525185 137.51066971 C-23.54545412 136.83886311 -23.54565638 136.16705652 -23.54586478 135.47489215 C-23.54941242 124.65280214 -23.56333329 113.83074904 -23.58111622 103.00867409 C-23.5987655 92.13358803 -23.60528399 81.25854037 -23.60112425 70.38344066 C-23.59919726 64.48912922 -23.60221115 58.59492629 -23.61823654 52.700634 C-23.63279107 47.30812981 -23.63360143 41.91580752 -23.6233168 36.52329512 C-23.62204491 34.56895808 -23.625888 32.61460987 -23.63526966 30.66029494 C-23.64725728 28.00973233 -23.64085155 25.35983185 -23.6297636 22.70928001 C-23.63764464 21.94533021 -23.64552568 21.18138041 -23.65364555 20.39428061 C-23.58781859 13.46070454 -21.06265397 8.31637461 -16.26062012 3.38095093 C-10.70101603 0.43808563 -6.22662098 -0.04945845 0 0 Z " fill="#40B7D4" transform="translate(23.2606201171875,499.6190490722656)"/>
<path d="M0 0 C82.83 0 165.66 0 251 0 C251 132 251 264 251 400 C168.17 400 85.34 400 0 400 C0 268 0 136 0 0 Z " fill="#6CE4E8" transform="translate(749,600)"/>
<path d="M0 0 C83.16 0 166.32 0 252 0 C252 99 252 198 252 300 C168.84 300 85.68 300 0 300 C0 201 0 102 0 0 Z " fill="#6CE4E8" transform="translate(374,700)"/>
<path d="M0 0 C0.90996534 -0.00382555 1.81993068 -0.00765109 2.75747073 -0.01159257 C5.80741754 -0.02191348 8.85717578 -0.01793211 11.90713501 -0.01396179 C14.09353306 -0.01830878 16.27992959 -0.02349188 18.46632385 -0.02944946 C24.40640812 -0.0428525 30.34642881 -0.04341664 36.28652525 -0.04088616 C41.2443514 -0.03981728 46.20216465 -0.04469774 51.15998805 -0.04949158 C63.52508247 -0.06122624 75.89014551 -0.06035912 88.25524183 -0.05393478 C98.98789842 -0.04876667 109.72046423 -0.06001842 120.45310287 -0.07903299 C131.47883534 -0.09841674 142.50452276 -0.10637506 153.53027213 -0.10290974 C159.71818499 -0.10109584 165.90601471 -0.10374379 172.09391403 -0.11762428 C177.91336428 -0.13018949 183.73263273 -0.12827076 189.55208015 -0.11521339 C191.68739572 -0.11284518 193.82272402 -0.11559103 195.95802498 -0.12383652 C198.8741649 -0.13428481 201.78969264 -0.12621844 204.70581055 -0.11352539 C205.54969153 -0.12089968 206.39357251 -0.12827396 207.26302564 -0.13587171 C212.56838805 -0.08733077 216.23551975 0.86182637 220.97988892 3.26069641 C220.97988892 3.92069641 220.97988892 4.58069641 220.97988892 5.26069641 C221.63988892 5.26069641 222.29988892 5.26069641 222.97988892 5.26069641 C226.15577535 9.59145064 228.1057968 12.92434089 228.10293674 18.31553936 C228.10492762 19.14385328 228.10691849 19.97216721 228.10896969 20.82558155 C228.10460069 22.18948033 228.10460069 22.18948033 228.10014343 23.58093262 C228.10142746 25.02685287 228.10142746 25.02685287 228.10273743 26.50198364 C228.10439841 29.75645266 228.09885958 33.01087073 228.09341431 36.26533508 C228.09310812 38.62860519 228.09324121 40.99187539 228.09377956 43.35514545 C228.09400585 49.69903893 228.08819887 56.04291364 228.08116913 62.38680267 C228.07548536 68.33390361 228.07520662 74.28099993 228.07449341 80.22810364 C228.06924055 97.63480373 228.05527947 115.0415003 228.04238892 132.44819641 C228.02176392 171.32632141 228.00113892 210.20444641 227.97988892 250.26069641 C145.14988892 250.26069641 62.31988892 250.26069641 -23.02011108 250.26069641 C-23.10261108 211.46507141 -23.18511108 172.66944641 -23.27011108 132.69819641 C-23.3065271 120.44106506 -23.34294312 108.18393372 -23.38046265 95.55537415 C-23.39852905 80.60652161 -23.39852905 80.60652161 -23.40188599 73.61190796 C-23.40561784 68.71880869 -23.42062856 63.82588241 -23.44241333 58.93283081 C-23.46982468 52.69346593 -23.47808037 46.45435303 -23.47240019 40.21493351 C-23.47358816 37.92381479 -23.48153492 35.63268736 -23.49697161 33.34162033 C-23.51684868 30.24807762 -23.51207902 27.15551561 -23.50112915 24.06195068 C-23.51277981 23.16433549 -23.52443047 22.26672029 -23.53643417 21.34190464 C-23.4670135 14.05176279 -21.39890483 10.00545843 -16.58261108 4.44819641 C-11.3627982 -0.00774141 -6.56699773 -0.02925565 0 0 Z " fill="#2C8BBA" transform="translate(772.0201110839844,99.73930358886719)"/>
<path d="M0 0 C0.90688507 -0.00538554 1.81377014 -0.01077108 2.74813658 -0.01631981 C5.77579848 -0.0305853 8.8030223 -0.02349908 11.83070374 -0.01637268 C14.00592398 -0.02207696 16.18114123 -0.02904145 18.35635376 -0.03717041 C24.25715784 -0.0551101 30.15781327 -0.0539319 36.05863643 -0.04822803 C40.98665041 -0.04513746 45.91463579 -0.05122714 50.8426457 -0.05726677 C62.46889759 -0.07131297 74.09507599 -0.0697498 85.72132874 -0.05836487 C97.71212612 -0.04688238 109.70260839 -0.06096134 121.69338316 -0.08776134 C131.99251853 -0.10991786 142.2915837 -0.11655584 152.59074122 -0.11068493 C158.74011341 -0.1073142 164.88934224 -0.10973837 171.03869438 -0.12693596 C176.82129262 -0.14240216 182.60355951 -0.13845281 188.38614464 -0.11963081 C190.50652757 -0.11594413 192.62693504 -0.11905567 194.74729538 -0.1295166 C197.64563245 -0.14272242 200.54287193 -0.13118225 203.44116211 -0.11352539 C204.27687506 -0.1231304 205.11258801 -0.1327354 205.9736256 -0.14263147 C212.59677052 -0.05981917 218.02470715 1.70685415 222.84266663 6.38768005 C223.29770569 7.04768005 223.75274475 7.70768005 224.22157288 8.38768005 C224.69465881 9.04768005 225.16774475 9.70768005 225.65516663 10.38768005 C228.0823846 14.68780325 227.92430585 19.02463833 227.90432739 23.85404968 C227.90561142 24.98351013 227.90561142 24.98351013 227.90692139 26.13578796 C227.9085772 28.66801821 227.90305192 31.2001824 227.89759827 33.73240662 C227.89729196 35.57515842 227.89742537 37.41791033 227.89796352 39.26066208 C227.89818948 44.1997704 227.89238952 49.13885454 227.88535309 54.07795715 C227.87966226 58.71098406 227.87939019 63.34400506 227.87867737 67.97703552 C227.87342801 81.53058691 227.85946689 95.08413379 227.84657288 108.63768005 C227.82594788 138.91518005 227.80532288 169.19268005 227.78407288 200.38768005 C144.62407288 200.38768005 61.46407288 200.38768005 -24.21592712 200.38768005 C-24.27780212 170.17205505 -24.33967712 139.95643005 -24.40342712 108.82518005 C-24.43073914 99.28281433 -24.45805115 89.74044861 -24.4861908 79.90892029 C-24.4997406 68.260849 -24.4997406 68.260849 -24.5022583 62.80871582 C-24.50505442 58.99897018 -24.51630154 55.18934981 -24.53265381 51.37963867 C-24.55324075 46.51890715 -24.55939879 41.65835764 -24.55514395 36.79758656 C-24.55603358 35.01444961 -24.56197682 33.23130625 -24.57357252 31.44820678 C-24.58852441 29.03684635 -24.58488684 26.62619031 -24.57669067 24.21481323 C-24.58542867 23.51947007 -24.59416666 22.82412691 -24.60316944 22.10771275 C-24.53340625 14.45600161 -21.62453004 8.79628297 -16.21592712 3.38768005 C-10.67746735 0.44007974 -6.2091556 -0.04453439 0 0 Z " fill="#2D8ABA" transform="translate(398.21592712402344,249.61231994628906)"/>
<path d="M0 0 C82.83 0 165.66 0 251 0 C251 66 251 132 251 200 C168.17 200 85.34 200 0 200 C0 134 0 68 0 0 Z " fill="#6BE4E7" transform="translate(0,800)"/>
<path d="M0 0 C0.91167419 -0.00467997 1.82334838 -0.00935994 2.76264906 -0.01418173 C5.80647453 -0.02611315 8.84984823 -0.01668164 11.89367676 -0.00723267 C14.08037071 -0.01129918 16.2670626 -0.01664151 18.45375061 -0.02316284 C24.38548641 -0.03683263 30.31706557 -0.03153909 36.24880409 -0.02202559 C42.45819138 -0.01442731 48.66756531 -0.02147507 54.87695312 -0.02618408 C65.97205701 -0.03199061 77.06709162 -0.02267095 88.16218442 -0.00740607 C98.21480698 0.00599654 108.2673256 0.00366827 118.31994629 -0.01016235 C130.00368401 -0.02617306 141.68735671 -0.03218616 153.37110376 -0.02332556 C159.55227307 -0.01864985 165.73337082 -0.01802149 171.91453552 -0.02793503 C177.72581543 -0.03660439 183.53689915 -0.0305831 189.34815788 -0.01325226 C191.48024609 -0.00928729 193.61235083 -0.01042162 195.74443245 -0.01704025 C198.65609739 -0.02524524 201.56713474 -0.01494648 204.47875977 0 C205.74253488 -0.01003825 205.74253488 -0.01003825 207.0318408 -0.02027929 C213.07010525 0.03978905 218.22419712 0.89583011 222.70031738 5.31845093 C223.40027832 6.33938843 223.40027832 6.33938843 224.11437988 7.38095093 C224.83754395 8.40188843 224.83754395 8.40188843 225.57531738 9.44345093 C241.19079462 35.43431237 227.73937988 70.05986902 227.73937988 100.38095093 C144.90937988 100.38095093 62.07937988 100.38095093 -23.26062012 100.38095093 C-23.26062012 10.57539537 -23.26062012 10.57539537 -16.26062012 3.38095093 C-10.70101603 0.43808563 -6.22662098 -0.04945845 0 0 Z " fill="#2C8AB9" transform="translate(23.2606201171875,499.6190490722656)"/>
</svg>
